{"title":"Atlantis 2013 S01E12 Touched by the Gods Part-1 x264 AAC E-Subs ","uid":9380293,"size":151865494,"categoryP":"video","categoryS":"tv_shows","magnet":"?xt=urn:btih:667eec9e64addc767a0a8dc8bfaaa795e45da82c&amp;dn=Atlantis+2013+S01E12+Touched+by+the+Gods+Part-1+x264+AAC+E-Subs+&amp;tr=udp%3A%2F%2Ftracker.openbittorrent.com%3A80&amp;tr=udp%3A%2F%2Fopen.demonii.com%3A1337&amp;tr=udp%3A%2F%2Ftracker.coppersurfer.tk%3A6969&amp;tr=udp%3A%2F%2Fexodus.desync.com%3A6969","seeders":1,"leechers":0,"uploader":"canc232","files":1,"time":1387701587,"description":"Atlantis 2013 S01E12 Touched by the Gods Part-1 x264 AAC E-Subs [GWC]\n\n\n\nSCREENS :\n &lt;a href=&quot;\nhttp://s20.postimg.org/edsdj0qd9/Atlantis_2013_S01_E12_Touched_by_the_Gods_Part.jpg&quot; rel=&quot;nofollow&quot; target=&quot;_NEW&quot;&gt;\nhttp://s20.postimg.org/edsdj0qd9/Atlantis_2013_S01_E12_Touched_by_the_Gods_Part.jpg&lt;/a&gt;\n &lt;a href=&quot;\nhttp://s20.postimg.org/xhlozd37h/Atlantis_2013_S01_E12_Touched_by_the_Gods_Part.jpg&quot; rel=&quot;nofollow&quot; target=&quot;_NEW&quot;&gt;\nhttp://s20.postimg.org/xhlozd37h/Atlantis_2013_S01_E12_Touched_by_the_Gods_Part.jpg&lt;/a&gt;\n &lt;a href=&quot;\nhttp://s20.postimg.org/hi31ft75p/Atlantis_2013_S01_E12_Touched_by_the_Gods_Part.jpg&quot; rel=&quot;nofollow&quot; target=&quot;_NEW&quot;&gt;\nhttp://s20.postimg.org/hi31ft75p/Atlantis_2013_S01_E12_Touched_by_the_Gods_Part.jpg&lt;/a&gt;\n\n\n\n\n\nMEDIA INFO :\nGeneral \nFormat : MPEG-4 \nFormat profile : Base Media \nFile size : 145 MiB \nDuration : 42mn 53s \nOverall bit rate mode : Variable \nOverall bit rate : 472 Kbps\n\nVideo \nFormat : AVC\nFormat profile : &lt;a class=&quot;__cf_email__&quot; href=&quot;/cdn-cgi/l/email-protection&quot; data-cfemail=&quot;1a52737d725a5629342a&quot;&gt;[email&amp;#160;protected]&lt;/a&gt;&lt;script cf-hash='f9e31' type=&quot;text/javascript&quot;&gt;\n/* &lt;![CDATA[ */!function(){try{var t=&quot;currentScript&quot;in document?document.currentScript:function(){for(var t=document.getElementsByTagName(&quot;script&quot;),e=t.length;e--;)if(t[e].getAttribute(&quot;cf-hash&quot;))return t[e]}();if(t&amp;&amp;t.previousSibling){var e,r,n,i,c=t.previousSibling,a=c.getAttribute(&quot;data-cfemail&quot;);if(a){for(e=&quot;&quot;,r=parseInt(a.substr(0,2),16),n=2;a.length-n;n+=2)i=parseInt(a.substr(n,2),16)^r,e+=String.fromCharCode(i);e=document.createTextNode(e),c.parentNode.replaceChild(e,c)}}}catch(u){}}();/* ]]&gt; */&lt;/script&gt; \nFormat settings, CABAC : Yes \nFormat settings, ReFrames : 5 frames\nDuration : 42mn 52s \nBit rate : 409 Kbps \nWidth : 720 pixels \nHeight : 404 pixels \nDisplay aspect ratio : 16:9 \nFrame rate : 25.000 fps\nStream size : 125 MiB (87%) \nTitle : Atlantis 2013 S01E12 Touched by the Gods Part-1 x264 AAC E-Subs [GWC] \nWriting library : x264 core\nLanguage : English \n\nAudio \nFormat : AAC \nFormat profile : HE-AAC / LC \nDuration : 42mn 53s \nBit rate mode : Variable \nChannel(s) : 2 channels \nSampling rate : 48.0 KHz / 24.0 KHz\nStream size : 18.4 MiB (13%)\nLanguage : English \n\nText \nFormat : Timed Text \nDuration : 42mn 33s \nStream size : 17.8 KiB (0%) \nTitle : English Subtitle by Stubbie \nLanguage : English ","torrent":{"xt":"urn:btih:667eec9e64addc767a0a8dc8bfaaa795e45da82c","amp;dn":"Atlantis+2013+S01E12+Touched+by+the+Gods+Part-1+x264+AAC+E-Subs+","amp;tr":["udp%3A%2F%2Ftracker.openbittorrent.com%3A80","udp%3A%2F%2Fopen.demonii.com%3A1337","udp%3A%2F%2Ftracker.coppersurfer.tk%3A6969","udp%3A%2F%2Fexodus.desync.com%3A6969"],"infoHash":"667eec9e64addc767a0a8dc8bfaaa795e45da82c","infoHashBuffer":{"type":"Buffer","data":[102,126,236,158,100,173,220,118,122,10,141,200,191,170,167,149,228,93,168,44]},"announce":[],"urlList":[]}}